<svg width="20" height="20" viewBox="0 0 12 12" fill="none" xmlns="http://www.w3.org/2000/svg">
<path d="M3.82961 1.67756C3.76689 1.74177 3.73178 1.82796 3.73178 1.91772C3.73178 2.00747 3.76689 2.09367 3.82961 2.15788L7.33349 5.75235L3.82961 9.34611C3.76689 9.41032 3.73178 9.49651 3.73178 9.58627C3.73178 9.67603 3.76689 9.76222 3.82961 9.82643C3.86009 9.85774 3.89654 9.88262 3.9368 9.89962C3.97706 9.91661 4.02032 9.92536 4.06402 9.92536C4.10771 9.92536 4.15097 9.91661 4.19123 9.89962C4.23149 9.88262 4.26794 9.85774 4.29842 9.82643L8.02448 6.0033C8.08992 5.93616 8.12655 5.84611 8.12655 5.75235C8.12655 5.6586 8.08992 5.56855 8.02448 5.50141L4.29842 1.67828C4.26794 1.64697 4.23149 1.62208 4.19123 1.60509C4.15097 1.5881 4.10771 1.57935 4.06402 1.57935C4.02032 1.57935 3.97706 1.5881 3.9368 1.60509C3.89654 1.62208 3.86009 1.64697 3.82961 1.67828V1.67756Z" fill="white"/>
</svg>
