<svg width="24" height="25" viewBox="0 0 24 25" fill="none" xmlns="http://www.w3.org/2000/svg">
<path d="M10 18.227C11.775 18.2266 13.4988 17.6324 14.897 16.539L19.293 20.935L20.707 19.521L16.311 15.125C17.405 13.7267 17.9996 12.0024 18 10.227C18 5.81599 14.411 2.22699 10 2.22699C5.589 2.22699 2 5.81599 2 10.227C2 14.638 5.589 18.227 10 18.227ZM10 4.22699C13.309 4.22699 16 6.91799 16 10.227C16 13.536 13.309 16.227 10 16.227C6.691 16.227 4 13.536 4 10.227C4 6.91799 6.691 4.22699 10 4.22699Z" fill="#9C9C9C"/>
</svg>
