<svg width="120" height="100" viewBox="0 0 151 85" fill="none" xmlns="http://www.w3.org/2000/svg">
<path d="M20.7536 13.7881L33.2506 13.7881L50.2284 30.4262L43.8709 36.7969L20.7536 13.7881Z" fill="#1C69DB"/>
<rect x="54.5803" y="47.8363" width="9.56171" height="24.6956" transform="rotate(-45.7566 54.5803 47.8363)" fill="#1C69DB"/>
<path d="M71.897 13.7791L78.7019 20.4961L21.5814 76.5772L8.82072 76.5772L71.897 13.7791Z" fill="#1C69DB"/>
<path d="M41.3459 38.8233L30.5503 49.8473L30.5504 28.0884L41.3459 38.8233Z" fill="#B7B6FF"/>
<path d="M53.2491 76.5772L40.261 76.5772L53.249 62.9842L53.2491 76.5772Z" fill="#B7B6FF"/>
<path d="M52.6088 13.7593L52.6088 28.3793L36.9925 13.7593L52.6088 13.7593Z" fill="#B7B6FF"/>
<path d="M1.24609 13.8005H13.9052V54.0313L1.24609 66.9272V13.8005Z" fill="black"/>
<path d="M11.778 60.3901L17.3293 54.735L26.926 54.735L5.29281 76.5772L1.40168 71.1296L11.778 60.3901Z" fill="black"/>
<path d="M53.2314 48.9762L53.2315 59.56L36.5775 76.5772L25.1117 76.5772L53.2314 48.9762Z" fill="black"/>
<rect x="1.24609" y="6.10352e-05" width="51.3627" height="10.6876" fill="#B7B6FF"/>
<path d="M81.667 45V25.4422H87.0365C88.4272 25.4422 89.7192 25.6911 90.9125 26.189C92.1057 26.6868 93.1488 27.3822 94.0417 28.2751C94.9425 29.1681 95.6419 30.2072 96.1397 31.3925C96.6455 32.5779 96.8983 33.858 96.8983 35.233C96.8983 36.6158 96.6494 37.8999 96.1516 39.0853C95.6537 40.2627 94.9544 41.2979 94.0536 42.1908C93.1606 43.0758 92.1136 43.7673 90.9125 44.2651C89.7192 44.755 88.4272 45 87.0365 45H81.667ZM85.5074 41.5626H86.6098C87.4948 41.5626 88.3127 41.4045 89.0634 41.0884C89.8141 40.7724 90.466 40.3298 91.0191 39.7609C91.5723 39.1919 92.003 38.5242 92.3111 37.7577C92.6193 36.9833 92.7734 36.1378 92.7734 35.2211C92.7734 34.3124 92.6193 33.4747 92.3111 32.7082C92.003 31.9338 91.5723 31.2621 91.0191 30.6932C90.466 30.1163 89.8141 29.6699 89.0634 29.3538C88.3127 29.0377 87.4948 28.8797 86.6098 28.8797H85.5074V41.5626ZM100.233 45V32.8623H103.872V45H100.233ZM102.058 30.3376C101.663 30.3376 101.3 30.2428 100.968 30.0531C100.644 29.8556 100.383 29.5908 100.186 29.259C99.988 28.9271 99.8892 28.5636 99.8892 28.1685C99.8892 27.7734 99.988 27.4138 100.186 27.0898C100.383 26.7658 100.644 26.509 100.968 26.3194C101.3 26.1218 101.663 26.023 102.058 26.023C102.453 26.023 102.813 26.1218 103.137 26.3194C103.461 26.509 103.718 26.7658 103.907 27.0898C104.105 27.4138 104.204 27.7734 104.204 28.1685C104.204 28.5636 104.105 28.9271 103.907 29.259C103.718 29.5908 103.461 29.8556 103.137 30.0531C102.813 30.2428 102.453 30.3376 102.058 30.3376ZM114.006 51.5193C112.37 51.5193 110.995 51.219 109.881 50.6184C108.767 50.0258 107.957 49.1486 107.451 47.987L110.414 46.5409C110.746 47.102 111.236 47.5484 111.884 47.8803C112.532 48.2122 113.236 48.3782 113.994 48.3782C114.682 48.3782 115.286 48.2399 115.808 47.9633C116.329 47.6946 116.736 47.3114 117.029 46.8135C117.321 46.3236 117.467 45.7547 117.467 45.1067V43.3998C116.93 44.0241 116.294 44.5101 115.559 44.8578C114.824 45.2055 114.034 45.3793 113.188 45.3793C112.09 45.3793 111.086 45.1067 110.177 44.5614C109.277 44.0083 108.557 43.2457 108.02 42.2738C107.483 41.3018 107.214 40.1876 107.214 38.9312C107.214 37.6984 107.475 36.6 107.996 35.636C108.526 34.664 109.245 33.8975 110.154 33.3365C111.07 32.7675 112.113 32.483 113.283 32.483C114.136 32.483 114.927 32.649 115.654 32.9809C116.381 33.3048 116.985 33.7592 117.467 34.344V32.8623H121.106V45.3319C121.106 46.5251 120.845 47.5879 120.324 48.5204C119.81 49.4529 119.028 50.1838 117.977 50.7132C116.926 51.2506 115.602 51.5193 114.006 51.5193ZM114.279 42.2856C114.919 42.2856 115.484 42.1434 115.974 41.8589C116.471 41.5665 116.859 41.1714 117.135 40.6736C117.412 40.1678 117.55 39.5949 117.55 38.9549C117.55 38.299 117.408 37.7182 117.123 37.2125C116.847 36.7067 116.464 36.3077 115.974 36.0153C115.484 35.7229 114.927 35.5767 114.302 35.5767C113.678 35.5767 113.121 35.7229 112.631 36.0153C112.141 36.3077 111.754 36.7107 111.469 37.2243C111.185 37.73 111.043 38.3069 111.043 38.9549C111.043 39.5949 111.181 40.1678 111.458 40.6736C111.734 41.1714 112.117 41.5665 112.607 41.8589C113.097 42.1434 113.654 42.2856 114.279 42.2856ZM125.375 45V32.8623H129.014V45H125.375ZM127.2 30.3376C126.805 30.3376 126.441 30.2428 126.11 30.0531C125.786 29.8556 125.525 29.5908 125.327 29.259C125.13 28.9271 125.031 28.5636 125.031 28.1685C125.031 27.7734 125.13 27.4138 125.327 27.0898C125.525 26.7658 125.786 26.509 126.11 26.3194C126.441 26.1218 126.805 26.023 127.2 26.023C127.595 26.023 127.955 26.1218 128.279 26.3194C128.603 26.509 128.86 26.7658 129.049 27.0898C129.247 27.4138 129.346 27.7734 129.346 28.1685C129.346 28.5636 129.247 28.9271 129.049 29.259C128.86 29.5908 128.603 29.8556 128.279 30.0531C127.955 30.2428 127.595 30.3376 127.2 30.3376ZM131.265 45L138.685 34.4625L132.474 25.4422H137.05L141.044 31.274L145.039 25.4422H149.614L143.403 34.4625L150.823 45H146.07L141.044 37.7933L136.018 45H131.265Z" fill="#636363"/>
</svg>
