<svg width="20" height="18" viewBox="0 0 12 10" fill="none" xmlns="http://www.w3.org/2000/svg">
<path d="M10.7832 2.21238C10.6196 1.83353 10.3837 1.49021 10.0886 1.20166C9.79339 0.912238 9.44529 0.682243 9.06326 0.524175C8.66712 0.359618 8.24224 0.275388 7.81328 0.276376C7.21148 0.276376 6.62433 0.441168 6.11409 0.752443C5.99202 0.826905 5.87605 0.908691 5.76619 0.997801C5.65633 0.908691 5.54036 0.826905 5.4183 0.752443C4.90805 0.441168 4.3209 0.276376 3.7191 0.276376C3.28576 0.276376 2.86584 0.359382 2.46912 0.524175C2.08582 0.682864 1.74037 0.911132 1.44374 1.20166C1.14833 1.48989 0.912351 1.83328 0.749172 2.21238C0.579497 2.60667 0.492828 3.02536 0.492828 3.45626C0.492828 3.86275 0.575835 4.28633 0.740628 4.71723C0.878565 5.07733 1.07632 5.45086 1.329 5.82806C1.72938 6.42497 2.27991 7.04752 2.9635 7.67862C4.09629 8.72474 5.2181 9.44739 5.26571 9.47669L5.55501 9.66223C5.68319 9.74402 5.84798 9.74402 5.97615 9.66223L6.26545 9.47669C6.31306 9.44617 7.43365 8.72474 8.56767 7.67862C9.25125 7.04752 9.80178 6.42497 10.2022 5.82806C10.4548 5.45086 10.6538 5.07733 10.7905 4.71723C10.9553 4.28633 11.0383 3.86275 11.0383 3.45626C11.0396 3.02536 10.9529 2.60667 10.7832 2.21238ZM5.76619 8.69667C5.76619 8.69667 1.42055 5.91228 1.42055 3.45626C1.42055 2.21238 2.44959 1.2041 3.7191 1.2041C4.61142 1.2041 5.38534 1.70214 5.76619 2.42967C6.14705 1.70214 6.92096 1.2041 7.81328 1.2041C9.0828 1.2041 10.1118 2.21238 10.1118 3.45626C10.1118 5.91228 5.76619 8.69667 5.76619 8.69667Z" fill="#1C69DB"/>
</svg>
