<svg id="Layer_1" data-name="Layer 1" xmlns="http://www.w3.org/2000/svg" xmlns:xlink="http://www.w3.org/1999/xlink" viewBox="0 0 407.5 394.19"><defs><style>.cls-1{font-size:39.23px;fill:#151011;}.cls-1,.cls-12{font-family:Cookie-Regular, Cookie;}.cls-2{fill:url(#linear-gradient);}.cls-3{fill:#f17212;}.cls-4{fill:#0c071d;}.cls-5{fill:#5d0c2f;}.cls-6{fill:url(#linear-gradient-2);}.cls-7{fill:url(#linear-gradient-3);}.cls-8{fill:url(#linear-gradient-4);}.cls-9{fill:url(#linear-gradient-5);}.cls-10{fill:url(#linear-gradient-6);}.cls-11{fill:url(#linear-gradient-7);}.cls-12{font-size:76.32px;fill:#5d0b2e;}.cls-13{fill:#453d40;}.cls-14{fill:#4c2008;}.cls-15{fill:#4d1f08;}</style><linearGradient id="linear-gradient" x1="96.1" y1="377.37" x2="503.33" y2="377.37" gradientUnits="userSpaceOnUse"><stop offset="0" stop-color="#2c599e"/><stop offset="0.32" stop-color="#3e85b9"/><stop offset="0.64" stop-color="#5dbbd0"/><stop offset="1" stop-color="#4ea1c1"/></linearGradient><linearGradient id="linear-gradient-2" x1="148.5" y1="320.56" x2="221.72" y2="320.56" gradientUnits="userSpaceOnUse"><stop offset="0.23" stop-color="#0c071d"/><stop offset="0.51" stop-color="#11074d"/><stop offset="0.84" stop-color="#0c071d"/></linearGradient><linearGradient id="linear-gradient-3" x1="227.39" y1="294.51" x2="243.1" y2="294.51" xlink:href="#linear-gradient-2"/><linearGradient id="linear-gradient-4" x1="246.7" y1="320.25" x2="327.47" y2="320.25" xlink:href="#linear-gradient-2"/><linearGradient id="linear-gradient-5" x1="321.32" y1="333.29" x2="370.67" y2="333.29" xlink:href="#linear-gradient-2"/><linearGradient id="linear-gradient-6" x1="365.87" y1="322.52" x2="402.14" y2="322.52" xlink:href="#linear-gradient-2"/><linearGradient id="linear-gradient-7" x1="396.44" y1="323.19" x2="432.71" y2="323.19" xlink:href="#linear-gradient-2"/></defs><title>O&amp;apos;Neil Designs</title><text class="cls-1" transform="translate(221.07 381.63)"> </text><path class="cls-2" d="M487.32,195.67H113.17a15.77,15.77,0,0,0-16,15.45c-.12,40.74-1.08,78.93-1.05,134.14,0,0,1.33,17.06,2.56,163.09,0,.38,0,4.69.33,10.45.21,4.1.32,6.15.61,8.19a43.8,43.8,0,0,0,3.54,12.67,41.4,41.4,0,0,0,5,8.06c3.86,5.12,9,9.56,15.35,10.92,10.3,2.21,18.81-4.51,33.53-13.93a450.09,450.09,0,0,1,54.88-29.9,28.13,28.13,0,0,0-7.18-10.1c-8.72-7.75-19.47-7.19-22-7H143.92a15.77,15.77,0,0,1-16-15.5V300.7h-.12V238.39h345V300.7q.1,15.15.2,30.3l24.14-16.69a15.33,15.33,0,0,0,6.19-12.24v-90.9A15.76,15.76,0,0,0,487.32,195.67Z" transform="translate(-96.1 -195.67)"/><path class="cls-3" d="M390.18,398.93c-3.95-3.06-15.55,4-23,6-1.61.44-5.33,1.25-6.95,1.53-1.38.23-2.6.4-3.79.54l3.92,20a37.28,37.28,0,0,0,15.52-4.07c10.53-5.19,14.31-12.78,15.15-14.72C392.36,402.24,391.43,399.9,390.18,398.93Z" transform="translate(-96.1 -195.67)"/><path class="cls-3" d="M351.71,407.43c-3.27.27-7.16.51-9.63.55-12,.21-19.4-3.64-20.21-2.72s6.25,6.16,14,7.54c.19,0,3.09.55,3,.75s-4.68-.58-5.13.2,3.5,3.33,8.22,4.63a63.68,63.68,0,0,0,7.43,1.25c0,.11-1.79,0-4.63.16-2.33.13-3.49.2-3.64.46-.55,1,6.69,5.92,16,6.65,1.09.08,2.15.1,3.18.08l-3.92-20C354.89,407.15,353.39,407.29,351.71,407.43Z" transform="translate(-96.1 -195.67)"/><path class="cls-4" d="M357.47,410.13c.14.26.14-.17.18-.44s0-.72.16-.43c.09-.36.31,0,.45.09,0-.22,0-.5.14-.13a4.29,4.29,0,0,0,.26.69c.07.2.06,0,0-.26,0,0-.08-.52-.17-1,.11.59.12.76.09.72s-.05.06-.15-.19c0,.24-.11,0-.19-.13a5.87,5.87,0,0,1-.41-.95c0,.72-.34,0-.47.39-.16-.31-.22-.06-.39-.35-.09.09-.29-.39-.39-.32-.12-.64,0-.2,0,.06a5.65,5.65,0,0,1,.12.61l.13.65c0,.14,0,0,.12.61,0-.14-.08-.43,0-.19,0-.18,0,0,.14.68,0,.05.2,1.07,0,.18.08.07.23.46.25.25A1.31,1.31,0,0,0,357.47,410.13Z" transform="translate(-96.1 -195.67)"/><path class="cls-4" d="M363.62,417.27c0-1.3-.63-1.19-1.37-.54-.28.83-1.35-2.12-1.49-.33-.21,1.36-1.15-1-1.4-.41-.48-1.08-.33.43-.67-.75.38,2.21.19,1.39-.18-.29-.24-1.16.1.7-.14-.45-.32-1.59-.36-1.68-.19-.72.05.46-.35-1.53-.23-.91-.49-2.54-.18-1-.1-.55.15.78-.12-.23-.49-.48-.49-.52-.58,1.71-1.52-.2.51,2.58.18.89.12.58l.13.67c0-.09.11.58.17.87a4.7,4.7,0,1,0,.09.5c.46,2.33-.14-.71.12.6.38,2,.39,2,.11.56-.05-.24.15.76.1.52-.34-1.74.36,1.85.08.4-.07-.38,0,0,.15.79s.2,1-.09-.47l.24,1.24c.18.9-.47-2.45.11.54-.14-.72-.1-.51,0-.14,0,.13.21,1.06.16.8.12.64.07.39.08.42l.11.58.17.83a5.16,5.16,0,0,0,.11.59c-.07-.36.13.64.11.56s.21,1.05.11.53c0,.11-.07-.31.09.5l.3,1.54.12.58a7.53,7.53,0,0,0,2.86-1.05c1,0,2.13,1.07,2.29-1.41.35.05.56-.1.57-.79.24.43.49,1.36.07-.71.1.55.07.5,0,.26a7.55,7.55,0,0,0-.36-.87c-.39-1.22-.58-1-.76-.48-.14.21-.3.38-.51.35s-.43-.09-.78-.79a11.67,11.67,0,0,0-.87-1.21c-.24-.2-.24.83-.37,1.14-.35.16-.65.27-.91,0-.18.13-.28.12-.31-.43.08-.05.31-.41.66-.74.4,0,.85-.34,1.4-.23.13-.64.27-1.28.59-.91.28.14.63.74.83.67.38.83.47.35.48-.4C363.3,416.59,363.38,416.38,363.62,417.27Z" transform="translate(-96.1 -195.67)"/><path class="cls-5" d="M354.49,412.72s0,0,0,0,.14-.43.4-.56c-.12-1.49,0-1.72.51-.39.29.32.23-1.23.62-.54.28,1.42-.12-.65-.15-.81.11.6-.14-.7-.15-.76.19,1-.33-1.66-.15-.75l-.16-.81a3,3,0,0,0-1.21-.19l-.8-.07a13.66,13.66,0,0,0-2.69.16c-1.33.17-2.83.23-5.83.34a45.15,45.15,0,0,1-8.64-.4c-1-.15-1.86-.28-2.75-.44-.55-.1-1.34-.24-2.29-.43-6.57-1.3-8.64-2.17-8.89-1.63-.36.75,3.09,3.38,4.78,4.31.73.41,1.58.81,1.58.81.57.27,1.26.58,2.07.89.48.19.9.34,1.22.45s.86.3,1.52.47,1.35.33,2.57.58c.09,0,.88.19,1.9.45a3.81,3.81,0,0,1,.85.27s0,0-.36,0l-.53,0c-.43,0-.72-.1-1.12-.14s-1.83-.17-2,.22,1.31,1.47,1.75,1.77a17.32,17.32,0,0,0,5.07,2.24,46.76,46.76,0,0,0,4.82,1c1.84.19,3.12.49,3.12.79s-.91.45-1.13.5a11.84,11.84,0,0,1-2,.11,9.26,9.26,0,0,1-1.37,0c-.39,0-.44-.07-.82-.09a10.94,10.94,0,0,0-1.24.07c-1,.09-1,.14-1.05.18-.19.32.8,1.11,1,1.31a17.39,17.39,0,0,0,6.17,3.18,11.78,11.78,0,0,0,2.85.53,13.47,13.47,0,0,0,2.76.55c.82,1.11,1.15.18,1.68.34.36-.7,1.16.86,1.54-.13.49,1.79.18-1.76.9-.37-.18-.93-.57-2.91-.11-.54-.11-.55-.26-1.34-.14-.71l-.14-.72c0-.18.25,1.29-.05-.26-.07-.38-.23-1.16-.13-.69-.26-1.28.12.62-.12-.57-.14-.76-.21-1.12-.09-.49-.3-1.54-.14-.72-.11-.57-.42-2.14.05.28-.11-.57.08.44-.31-1.57-.1-.49.14.71.27,1.36-.13-.69l-.12-.61c.15.76-.16-.79-.12-.61a4.86,4.86,0,0,1-.14-.73c.07.37.26,1.37,0,.05l-.09-.47c-.15-.78-.11-.57,0,.06-.2-1,0-.2-.14-.71s0-.2-.05-.29c0,.23-.06-.28,0-.2l-.16-.82c-.17-.88-.13-.67-.11-.58.27,1.4.07.35-.17-.84l-.1-.54c-.36-1.36-.29-.46-.21.41-.11,0-.44-1.21-.4-.47-.13.4-.36.25-.63-.16C354.68,412.73,354.51,412.69,354.49,412.72Z" transform="translate(-96.1 -195.67)"/><path class="cls-6" d="M164.76,355.67q-5.74-5.31-5.75-16.4a60.37,60.37,0,0,1,.89-9.74,80.2,80.2,0,0,1,2.57-10.72,69.89,69.89,0,0,1,4.45-10.93,47.72,47.72,0,0,1,6-9.12q7.65-9,17.16-9a24,24,0,0,1,3.1.18,15.35,15.35,0,0,1,2.88.69q-5,2.68-9.84,11.65A88.82,88.82,0,0,0,178.85,321a70.65,70.65,0,0,0-2.91,18.71,20.1,20.1,0,0,0,1.57,8.76,5.4,5.4,0,0,0,5.08,3.45,9.91,9.91,0,0,0,5.68-2,26.16,26.16,0,0,0,5.67-5.67,50.14,50.14,0,0,0,5-8.27,79,79,0,0,0,7.6-31.93,46.94,46.94,0,0,0-.62-8.3,13.92,13.92,0,0,0-2.18-5.57,9.85,9.85,0,0,0-4.53-3.5,19.94,19.94,0,0,0-7.32-1.14,41.62,41.62,0,0,0-12.52,1.88,33.32,33.32,0,0,0-10.5,5.39,26.41,26.41,0,0,0-7.33,8.71,23.91,23.91,0,0,0-2.62,11.19,11.88,11.88,0,0,0,.61,4,3,3,0,0,0,.39,1,1.62,1.62,0,0,1,.17.67q-5.7,0-8.64-2.09t-2.93-6.78q0-7.26,6.6-14.07a46.6,46.6,0,0,1,16.82-10.57,63,63,0,0,1,22.69-4.17q14.31,0,21.07,7.57,6,6.81,6,19.44a63.67,63.67,0,0,1-1.06,11.18,66.45,66.45,0,0,1-3.19,11.55A61.93,61.93,0,0,1,211.69,342a44.17,44.17,0,0,1-7.91,9.33,35.39,35.39,0,0,1-24.26,9.18Q170,360.46,164.76,355.67Z" transform="translate(-96.1 -195.67)"/><path class="cls-7" d="M227.73,305.51a27.28,27.28,0,0,0,3.83-4.33,6.43,6.43,0,0,0,1.37-3.3,2,2,0,0,0-.51-1.34,8.12,8.12,0,0,0-1.2-1.11l-1-.79a8.18,8.18,0,0,1-2-2.22,5.8,5.8,0,0,1-.76-3.09,7.53,7.53,0,0,1,.59-2.94,7.06,7.06,0,0,1,1.59-2.37,7.52,7.52,0,0,1,5.48-2.06,9.42,9.42,0,0,1,3.19.54,7.91,7.91,0,0,1,2.62,1.52,6.72,6.72,0,0,1,1.65,2.34,7.46,7.46,0,0,1,.59,3,11.55,11.55,0,0,1-.95,4.33,22,22,0,0,1-2.68,4.64,35.45,35.45,0,0,1-10,8.76Z" transform="translate(-96.1 -195.67)"/><path class="cls-8" d="M273.23,287.84q-7.8,2.75-11.65,8.22A21.39,21.39,0,0,0,258,309.32a22,22,0,0,0,1,6.19,12.58,12.58,0,0,0,2.39,4.51q-7.38.17-10.92-2.51t-3.71-8.61a22.92,22.92,0,0,1,4.41-14A32.77,32.77,0,0,1,263.3,284.6a40.44,40.44,0,0,1,17.38-4.2,28.38,28.38,0,0,1,4.62.23,34.46,34.46,0,0,1,4.47,1l15.4,56.17,11.18-57.59,11.12-.25L311,359.33l-15.81.36L280.5,307.63l-11.6,52.65-10.84.24Z" transform="translate(-96.1 -195.67)"/><path class="cls-9" d="M326.18,356.54q-4.86-4.17-4.86-12.83a41.57,41.57,0,0,1,.7-7.22,49.52,49.52,0,0,1,2.09-7.94,45,45,0,0,1,4-8.4,33.61,33.61,0,0,1,5.67-7,26,26,0,0,1,18.45-7q7,0,10.17,3.09,2.46,2.43,2.46,7a17.58,17.58,0,0,1-2.12,8.43,23.26,23.26,0,0,1-5.87,7,30.78,30.78,0,0,1-8.5,4.76,33.77,33.77,0,0,1-9.84,2.09c-.18,1.79-.28,3.2-.28,4.23,0,3.43.71,5.81,2.13,7.11q1.85,1.76,6.15,1.75a21.61,21.61,0,0,0,11.34-3.09,27.28,27.28,0,0,0,4.2-3.07q2-1.77,4.69-4.51h3.91a48,48,0,0,1-12.46,13.46,32.4,32.4,0,0,1-19,6.08Q330.77,360.46,326.18,356.54Zm19.45-24.79a19,19,0,0,0,9.06-9.46A15.53,15.53,0,0,0,356,316a6.59,6.59,0,0,0-.64-3.22,2.35,2.35,0,0,0-2.21-1.11,6.38,6.38,0,0,0-4.17,1.85,22.12,22.12,0,0,0-4.05,5.11,44.75,44.75,0,0,0-3.24,6.9,53.44,53.44,0,0,0-2.29,7.89A16.21,16.21,0,0,0,345.63,331.75Z" transform="translate(-96.1 -195.67)"/><path class="cls-10" d="M369.44,357.47q-3.57-3.3-3.57-9.64a31.36,31.36,0,0,1,.89-6.91l7.77-33.86H391l-8.22,35.87a10.92,10.92,0,0,0-.45,3.41,3.73,3.73,0,0,0,1.09,3,5.73,5.73,0,0,0,3.55.87,8.14,8.14,0,0,0,3.27-.69,10.57,10.57,0,0,0,2.94-1.94,15.63,15.63,0,0,0,4.13-6.7h4.81a37,37,0,0,1-7.71,12.74,23.33,23.33,0,0,1-8.83,5.56,22.68,22.68,0,0,1-7.49,1.24C374.45,360.46,371.57,359.46,369.44,357.47Zm12.91-56.78a9,9,0,0,1-2.9-1.78,7.61,7.61,0,0,1-1.93-2.63,7.87,7.87,0,0,1,0-6.49,8.86,8.86,0,0,1,1.93-2.73,8.62,8.62,0,0,1,2.9-1.83,9.88,9.88,0,0,1,7,0,9.2,9.2,0,0,1,3,1.83,8.24,8.24,0,0,1,2,2.73,7.87,7.87,0,0,1,0,6.49,7.15,7.15,0,0,1-2,2.63,9.62,9.62,0,0,1-3,1.78,9.88,9.88,0,0,1-7,0Z" transform="translate(-96.1 -195.67)"/><path class="cls-11" d="M400,357.47q-3.58-3.3-3.58-9.64a32,32,0,0,1,.89-6.91L409.57,288l16.94-2.12-13.14,57a11.25,11.25,0,0,0-.44,3.41,3.7,3.7,0,0,0,1.09,3,5.71,5.71,0,0,0,3.55.87,8.17,8.17,0,0,0,3.27-.69,10.52,10.52,0,0,0,2.93-1.94,15.64,15.64,0,0,0,4.14-6.7h4.8A37,37,0,0,1,425,353.66a23.33,23.33,0,0,1-8.83,5.56,22.64,22.64,0,0,1-7.49,1.24Q403.2,360.46,400,357.47Z" transform="translate(-96.1 -195.67)"/><text class="cls-12" transform="translate(49.68 230.49)">Designs</text><path class="cls-13" d="M385.53,398.53a9.22,9.22,0,0,0,.94,7,7.74,7.74,0,0,0,3.74,3.12l17-11L401.75,388Z" transform="translate(-96.1 -195.67)"/><path class="cls-14" d="M397.46,354.26H512a0,0,0,0,1,0,0v11.12a0,0,0,0,1,0,0H397.45a3.56,3.56,0,0,1-3.56-3.56v-4a3.57,3.57,0,0,1,3.57-3.57Z" transform="translate(933.54 209.15) rotate(146)"/><path class="cls-15" d="M147.79,458h10.53v2H147.79Zm4.22,1.22h2.09v13.69H152Z" transform="translate(-96.1 -195.67)"/><path class="cls-15" d="M159.75,458h2.09v14.91h-2.09Zm6.46,8.46a2.42,2.42,0,0,0-.58-1.74,2.16,2.16,0,0,0-1.64-.62,2.23,2.23,0,0,0-1.59.53,2,2,0,0,0-.56,1.51l-.21-2.05a3.74,3.74,0,0,1,1.28-1.46,3.13,3.13,0,0,1,1.76-.52,3.28,3.28,0,0,1,2.68,1.14,4.79,4.79,0,0,1,1,3.2v6.46h-2.09Z" transform="translate(-96.1 -195.67)"/><path class="cls-15" d="M171.48,458h2.09v2.09h-2.09Zm0,4.27h2.09v10.64h-2.09Z" transform="translate(-96.1 -195.67)"/><path class="cls-15" d="M176.75,462.27h2.09v10.64h-2.09Zm6.46,4.19a2.42,2.42,0,0,0-.58-1.74,2.16,2.16,0,0,0-1.64-.62,2.19,2.19,0,0,0-1.59.54,2.07,2.07,0,0,0-.56,1.53l-.21-2.05a3.86,3.86,0,0,1,1.29-1.49,3.15,3.15,0,0,1,1.75-.52,3.32,3.32,0,0,1,2.69,1.14,4.85,4.85,0,0,1,.94,3.2v6.46h-2.09Z" transform="translate(-96.1 -195.67)"/><path class="cls-15" d="M188.48,458h2.09v14.91h-2.09Zm.9,10.87,5.48-6.6h2.46l-8.07,9.08Zm2.48-2.1,1.34-1.4,4.64,7.54h-2.27Z" transform="translate(-96.1 -195.67)"/><path class="cls-15" d="M206.61,472.59a3.26,3.26,0,0,1-1.26-1.49,5.64,5.64,0,0,1-.43-2.33v-2.35a5.91,5.91,0,0,1,.42-2.35,3.21,3.21,0,0,1,1.22-1.48,3.57,3.57,0,0,1,1.94-.51,3.28,3.28,0,0,1,1.73.49,3.62,3.62,0,0,1,1.26,1.39l-.21,2.17A2.58,2.58,0,0,0,211,465a1.67,1.67,0,0,0-.71-.73,2.33,2.33,0,0,0-1.13-.25,2,2,0,0,0-1.61.64,2.68,2.68,0,0,0-.57,1.82v2.32a2.58,2.58,0,0,0,.57,1.79,2.05,2.05,0,0,0,1.61.63,2.22,2.22,0,0,0,1.13-.27,1.66,1.66,0,0,0,.71-.75,2.67,2.67,0,0,0,.25-1.18l.14,2.25a3,3,0,0,1-1,1.32,2.89,2.89,0,0,1-1.78.53A3.79,3.79,0,0,1,206.61,472.59ZM211.28,458h2.09v14.91h-2.09Z" transform="translate(-96.1 -195.67)"/><path class="cls-15" d="M219.43,473.06l-1.05-.55a3.69,3.69,0,0,1-1.59-1.63,5.54,5.54,0,0,1-.55-2.59v-1.2a6.26,6.26,0,0,1,.53-2.69,3.73,3.73,0,0,1,1.53-1.7,4.74,4.74,0,0,1,2.42-.59,3.82,3.82,0,0,1,2.28.67,4.11,4.11,0,0,1,1.44,1.93,8.27,8.27,0,0,1,.5,3v.7h-7.18v-1.68H223a3.63,3.63,0,0,0-.68-2,1.88,1.88,0,0,0-1.55-.72,2.26,2.26,0,0,0-1.84.78,3.36,3.36,0,0,0-.65,2.2v1.36a2.77,2.77,0,0,0,.7,2,2.64,2.64,0,0,0,2,.7,3.33,3.33,0,0,0,1.26-.25,3.54,3.54,0,0,0,1.11-.72l1.38,1.37a5.82,5.82,0,0,1-1.78,1.18,5.12,5.12,0,0,1-2,.41Z" transform="translate(-96.1 -195.67)"/><path class="cls-15" d="M230.63,473.06l-.83-.18a7,7,0,0,1-1.54-.55,6.37,6.37,0,0,1-1.33-.93l1.25-1.53a6.86,6.86,0,0,0,1.71,1,4.64,4.64,0,0,0,1.68.33,3.53,3.53,0,0,0,1.86-.39,1.27,1.27,0,0,0,.62-1.15.9.9,0,0,0-.34-.77,1.78,1.78,0,0,0-.84-.34,13.09,13.09,0,0,0-1.41-.16h-.52a8.38,8.38,0,0,1-1.75-.31,2.3,2.3,0,0,1-1.19-.82,2.72,2.72,0,0,1-.48-1.73,3.49,3.49,0,0,1,.46-1.88,2.84,2.84,0,0,1,1.37-1.12,6.09,6.09,0,0,1,2.29-.38,7.52,7.52,0,0,1,1.59.16,7.09,7.09,0,0,1,1.44.45,7.42,7.42,0,0,1,1.32.77L234.73,465a7.11,7.11,0,0,0-1.58-.76,4.53,4.53,0,0,0-1.51-.26,2.89,2.89,0,0,0-1.6.36,1.24,1.24,0,0,0-.53,1.09.74.74,0,0,0,.3.65,1.86,1.86,0,0,0,.76.29,13.2,13.2,0,0,0,1.32.12h.39a9.23,9.23,0,0,1,1.9.3,2.62,2.62,0,0,1,1.32.89,3.08,3.08,0,0,1,.53,1.93,3.4,3.4,0,0,1-.49,1.9,3,3,0,0,1-1.48,1.13,6.86,6.86,0,0,1-2.49.38Z" transform="translate(-96.1 -195.67)"/><path class="cls-15" d="M238.7,458h2.09v2.09H238.7Zm0,4.27h2.09v10.64H238.7Z" transform="translate(-96.1 -195.67)"/><path class="cls-15" d="M245.35,472.59a3.2,3.2,0,0,1-1.26-1.49,5.64,5.64,0,0,1-.43-2.33v-2.35a5.91,5.91,0,0,1,.42-2.35,3.21,3.21,0,0,1,1.22-1.48,3.57,3.57,0,0,1,1.94-.51,3.28,3.28,0,0,1,1.73.49,3.62,3.62,0,0,1,1.26,1.39l-.21,2.17a2.58,2.58,0,0,0-.25-1.16,1.67,1.67,0,0,0-.71-.73,2.34,2.34,0,0,0-1.14-.25,2,2,0,0,0-1.6.64,2.68,2.68,0,0,0-.57,1.82v2.32a2.58,2.58,0,0,0,.57,1.79,2,2,0,0,0,1.6.63,2.24,2.24,0,0,0,1.14-.27,1.66,1.66,0,0,0,.71-.75A2.67,2.67,0,0,0,250,469l.14,2.25a3,3,0,0,1-1,1.32,2.89,2.89,0,0,1-1.78.53A3.79,3.79,0,0,1,245.35,472.59Zm1,4.65-.94-.45a3.38,3.38,0,0,1-1.47-1.26l1.41-1.28a2.79,2.79,0,0,0,1,.87,2.43,2.43,0,0,0,1.19.31A2.3,2.3,0,0,0,250,472.9V462.27h2.09v10.32a5.38,5.38,0,0,1-.54,2.51,3.63,3.63,0,0,1-1.56,1.59,5.28,5.28,0,0,1-2.48.55Z" transform="translate(-96.1 -195.67)"/><path class="cls-15" d="M255.29,462.27h2.09v10.64h-2.09Zm6.46,4.19a2.43,2.43,0,0,0-.59-1.74,2.15,2.15,0,0,0-1.64-.62,2.18,2.18,0,0,0-1.58.54,2,2,0,0,0-.56,1.53l-.22-2.05a3.86,3.86,0,0,1,1.29-1.49,3.21,3.21,0,0,1,1.76-.52,3.29,3.29,0,0,1,2.68,1.14,4.85,4.85,0,0,1,.95,3.2v6.46h-2.09Z" transform="translate(-96.1 -195.67)"/><path class="cls-15" d="M266.66,470.71h2.19v2.2h-2.19Z" transform="translate(-96.1 -195.67)"/><path class="cls-15" d="M269.42,458h10.52v2H269.42Zm4.21,1.22h2.09v13.69h-2.09Z" transform="translate(-96.1 -195.67)"/><path class="cls-15" d="M281.37,458h2.09v14.91h-2.09Zm6.46,8.46a2.42,2.42,0,0,0-.58-1.74,2.16,2.16,0,0,0-1.64-.62,2.24,2.24,0,0,0-1.59.53,2,2,0,0,0-.56,1.51l-.21-2.05a3.76,3.76,0,0,1,1.29-1.46,3.1,3.1,0,0,1,1.75-.52,3.32,3.32,0,0,1,2.69,1.14,4.85,4.85,0,0,1,.94,3.2v6.46h-2.09Z" transform="translate(-96.1 -195.67)"/><path class="cls-15" d="M293.1,458h2.09v2.09H293.1Zm0,4.27h2.09v10.64H293.1Z" transform="translate(-96.1 -195.67)"/><path class="cls-15" d="M298.37,462.27h2.09v10.64h-2.09Zm6.46,4.19a2.42,2.42,0,0,0-.58-1.74,2.16,2.16,0,0,0-1.64-.62,2.2,2.2,0,0,0-1.59.54,2.07,2.07,0,0,0-.56,1.53l-.21-2.05a3.86,3.86,0,0,1,1.29-1.49,3.18,3.18,0,0,1,1.75-.52,3.32,3.32,0,0,1,2.69,1.14,4.85,4.85,0,0,1,.94,3.2v6.46h-2.09Z" transform="translate(-96.1 -195.67)"/><path class="cls-15" d="M310.1,458h2.1v14.91h-2.1Zm.91,10.87,5.47-6.6h2.46l-8.07,9.08Zm2.47-2.1,1.34-1.4,4.64,7.54h-2.27Z" transform="translate(-96.1 -195.67)"/><path class="cls-15" d="M329.69,473.06l-1-.54a3.71,3.71,0,0,1-1.58-1.58,5.34,5.34,0,0,1-.54-2.5v-1.76a5.27,5.27,0,0,1,.54-2.47,3.72,3.72,0,0,1,1.58-1.56,5.25,5.25,0,0,1,2.48-.54,6.08,6.08,0,0,1,1.57.2,4.94,4.94,0,0,1,1.32.58,3.55,3.55,0,0,1,1,.92l-1.51,1.36a3.1,3.1,0,0,0-1.05-.79,3,3,0,0,0-1.27-.28,2.51,2.51,0,0,0-1.87.68,2.56,2.56,0,0,0-.67,1.9v1.76a2.71,2.71,0,0,0,.66,1.95,2.52,2.52,0,0,0,1.88.68,3,3,0,0,0,1.28-.29,3.11,3.11,0,0,0,1-.84l1.51,1.45a3.86,3.86,0,0,1-1,.91,4.63,4.63,0,0,1-1.32.57,6.06,6.06,0,0,1-1.56.19Z" transform="translate(-96.1 -195.67)"/><path class="cls-15" d="M339.4,470.16a1,1,0,0,0,.17.6.57.57,0,0,0,.47.21h1v2H339.8a2.32,2.32,0,0,1-1.84-.74,3,3,0,0,1-.65-2.08V458h2.09Z" transform="translate(-96.1 -195.67)"/><path class="cls-15" d="M343.75,472.25a3.06,3.06,0,0,1-1-2.48,3,3,0,0,1,.89-2.37,4,4,0,0,1,2.7-.79h3l.14,1.68h-3.16a1.78,1.78,0,0,0-1.22.37,1.41,1.41,0,0,0-.41,1.11,1.38,1.38,0,0,0,.54,1.2,2.79,2.79,0,0,0,1.64.39,4.51,4.51,0,0,0,1.78-.26.83.83,0,0,0,.59-.8l.22,1.5a2.43,2.43,0,0,1-.68.71,3.08,3.08,0,0,1-.94.41,5.58,5.58,0,0,1-4.14-.67Zm5.54-6.09a2.22,2.22,0,0,0-.55-1.62,2.11,2.11,0,0,0-1.59-.58,4,4,0,0,0-1.24.19,3.61,3.61,0,0,0-1.09.55l-1.53-1.05a4.11,4.11,0,0,1,1.6-1.13,5.75,5.75,0,0,1,2.2-.41,5.11,5.11,0,0,1,2.27.47,3.28,3.28,0,0,1,1.43,1.35,4.34,4.34,0,0,1,.49,2.14v6.84h-2Z" transform="translate(-96.1 -195.67)"/><path class="cls-15" d="M357.28,473.06l-.82-.18a7.12,7.12,0,0,1-1.55-.55,6.06,6.06,0,0,1-1.32-.93l1.24-1.53a7.23,7.23,0,0,0,1.71,1,4.66,4.66,0,0,0,1.69.33,3.58,3.58,0,0,0,1.86-.39,1.27,1.27,0,0,0,.62-1.15.92.92,0,0,0-.34-.77,1.87,1.87,0,0,0-.84-.34,13.33,13.33,0,0,0-1.42-.16h-.51a8.26,8.26,0,0,1-1.75-.31,2.37,2.37,0,0,1-1.2-.82,2.72,2.72,0,0,1-.48-1.73,3.49,3.49,0,0,1,.47-1.88,2.75,2.75,0,0,1,1.37-1.12,6.05,6.05,0,0,1,2.29-.38,7.36,7.36,0,0,1,1.58.16,7.09,7.09,0,0,1,1.44.45,6.78,6.78,0,0,1,1.32.77L361.38,465a6.84,6.84,0,0,0-1.57-.76,4.57,4.57,0,0,0-1.51-.26,2.87,2.87,0,0,0-1.6.36,1.23,1.23,0,0,0-.54,1.09.73.73,0,0,0,.31.65,1.8,1.8,0,0,0,.76.29c.31.05.75.09,1.31.12h.39a9.12,9.12,0,0,1,1.9.3,2.54,2.54,0,0,1,1.32.89,3,3,0,0,1,.54,1.93,3.4,3.4,0,0,1-.5,1.9,2.92,2.92,0,0,1-1.48,1.13,6.84,6.84,0,0,1-2.48.38Z" transform="translate(-96.1 -195.67)"/><path class="cls-15" d="M368.17,473.06l-.82-.18a7.12,7.12,0,0,1-1.55-.55,6.06,6.06,0,0,1-1.32-.93l1.24-1.53a7,7,0,0,0,1.71,1,4.66,4.66,0,0,0,1.69.33,3.58,3.58,0,0,0,1.86-.39,1.27,1.27,0,0,0,.62-1.15.92.92,0,0,0-.34-.77,1.87,1.87,0,0,0-.84-.34,13.33,13.33,0,0,0-1.42-.16h-.51a8.26,8.26,0,0,1-1.75-.31,2.37,2.37,0,0,1-1.2-.82,2.72,2.72,0,0,1-.48-1.73,3.49,3.49,0,0,1,.47-1.88,2.75,2.75,0,0,1,1.37-1.12,6.05,6.05,0,0,1,2.29-.38,7.36,7.36,0,0,1,1.58.16,7.09,7.09,0,0,1,1.44.45,6.78,6.78,0,0,1,1.32.77L372.27,465a7,7,0,0,0-1.57-.76,4.57,4.57,0,0,0-1.51-.26,2.87,2.87,0,0,0-1.6.36,1.23,1.23,0,0,0-.54,1.09.73.73,0,0,0,.31.65,1.8,1.8,0,0,0,.76.29c.31.05.75.09,1.31.12h.39a9.12,9.12,0,0,1,1.9.3,2.54,2.54,0,0,1,1.32.89,3,3,0,0,1,.54,1.93,3.4,3.4,0,0,1-.5,1.9,3,3,0,0,1-1.48,1.13,6.84,6.84,0,0,1-2.48.38Z" transform="translate(-96.1 -195.67)"/><path class="cls-15" d="M374.81,462.27h2.13l3.27,9.24-1.16,2.27Zm9.42,0L379.7,475.4a3.07,3.07,0,0,1-.65,1.15,2.29,2.29,0,0,1-1,.62,5,5,0,0,1-1.44.18h-.42v-2h.42a1.6,1.6,0,0,0,.93-.24,1.79,1.79,0,0,0,.6-.81l3.94-12Z" transform="translate(-96.1 -195.67)"/><path class="cls-15" d="M384.49,470.71h2.19v2.2h-2.19Z" transform="translate(-96.1 -195.67)"/></svg>