<svg id="Capa_1" enable-background="new 0 0 512 512" height="50" viewBox="0 0 512 512" width="50" xmlns="http://www.w3.org/2000/svg"><g><path d="m300 344.583c-24.813 0-45 20.187-45 45s20.187 45 45 45 45-20.187 45-45-20.186-45-45-45zm0 60c-8.271 0-15-6.729-15-15s6.729-15 15-15 15 6.729 15 15-6.728 15-15 15z"/><path d="m170 344.583c-24.813 0-45 20.187-45 45s20.187 45 45 45 45-20.187 45-45-20.186-45-45-45zm0 60c-8.271 0-15-6.729-15-15s6.729-15 15-15 15 6.729 15 15-6.728 15-15 15z"/><path d="m150 277c0-24.813-20.187-45-45-45s-45 20.187-45 45 20.187 45 45 45 45-20.186 45-45zm-45 15c-8.271 0-15-6.729-15-15s6.729-15 15-15 15 6.729 15 15-6.728 15-15 15z"/><path d="m170 119.417c-24.813 0-45 20.187-45 45s20.187 45 45 45 45-20.187 45-45-20.186-45-45-45zm0 60c-8.271 0-15-6.729-15-15s6.729-15 15-15 15 6.729 15 15-6.728 15-15 15z"/><path d="m456.615 3.488c-5.566-4.65-13.664-4.65-19.23 0-2.262 1.888-55.385 47.11-55.385 121.512 0 25.754 9.726 41.025 20 49.968v127.198c-9.276-4.938-19.644-7.875-30.596-8.495-42.07-2.377-73.561-18.1-88.672-44.272-15.11-26.172-12.981-61.305 5.994-98.928 12.207-24.202 10.381-52.217-4.885-74.939-15.288-22.757-40.578-35.057-67.645-32.9-34.895 2.779-68.066 13.126-98.596 30.752-54.36 31.385-93.244 82.061-109.491 142.693-16.246 60.631-7.909 123.962 23.477 178.322 31.385 54.361 82.062 93.246 142.693 109.493 20.246 5.425 40.791 8.108 61.204 8.108 40.719 0 80.909-10.681 117.118-31.586 18.316-10.575 34.824-23.3 49.398-38v24.586c0 24.813 20.187 45 45 45s45-20.187 45-45v-292.032c10.274-8.943 20-24.214 20-49.968.001-74.402-53.122-119.624-55.384-121.512zm-119.013 450.946c-47.421 27.379-102.667 34.654-155.558 20.479-52.892-14.172-97.099-48.093-124.478-95.515-27.379-47.421-34.652-102.666-20.479-155.558 14.172-52.892 48.093-97.099 95.515-124.478 26.637-15.379 55.563-24.404 85.977-26.826 1.208-.097 2.407-.145 3.602-.145 14.738 0 28.287 7.256 36.761 19.868 9.137 13.601 10.259 30.311 3.001 44.7-23.683 46.955-25.526 92.214-5.189 127.438 20.337 35.225 60.454 56.258 112.96 59.226 12.9.729 24.457 6.88 32.288 17.044v55.322c-17.037 23.948-38.688 43.599-64.4 58.445zm124.398 12.566c0 8.271-6.729 15-15 15s-15-6.729-15-15l.064-75h29.936zm0-105h-29.936l-.064-179.777h30zm10.431-209.777h-50.861c-6.431-5.703-9.57-14.659-9.57-27.223 0-42.229 21.87-73.606 35-88.637 13.13 15.03 35 46.407 35 88.637 0 12.564-3.138 21.52-9.569 27.223z"/></g></svg>