<svg width="39" height="38" viewBox="0 0 39 38" fill="none" xmlns="http://www.w3.org/2000/svg">
<rect width="38.4002" height="37.4859" fill="#605CFF"/>
<path d="M14.3106 7.92335C14.1511 8.08664 14.0618 8.30584 14.0618 8.5341C14.0618 8.76235 14.1511 8.98155 14.3106 9.14484L23.2212 18.2859L14.3106 27.4252C14.1511 27.5884 14.0618 27.8076 14.0618 28.0359C14.0618 28.2642 14.1511 28.4834 14.3106 28.6466C14.3881 28.7263 14.4808 28.7896 14.5832 28.8328C14.6855 28.876 14.7955 28.8982 14.9067 28.8982C15.0178 28.8982 15.1278 28.876 15.2302 28.8328C15.3326 28.7896 15.4253 28.7263 15.5028 28.6466L24.9785 18.9241C25.1449 18.7533 25.2381 18.5243 25.2381 18.2859C25.2381 18.0475 25.1449 17.8185 24.9785 17.6477L15.5028 7.92518C15.4253 7.84556 15.3326 7.78227 15.2302 7.73906C15.1278 7.69585 15.0178 7.67358 14.9067 7.67358C14.7955 7.67358 14.6855 7.69585 14.5832 7.73906C14.4808 7.78227 14.3881 7.84556 14.3106 7.92518V7.92335Z" fill="white"/>
</svg>
