<svg width="66" height="12" viewBox="0 0 66 12" fill="none" xmlns="http://www.w3.org/2000/svg">
<path d="M6 0L7.34708 4.1459H11.7063L8.17963 6.7082L9.52671 10.8541L6 8.2918L2.47329 10.8541L3.82037 6.7082L0.293661 4.1459H4.65292L6 0Z" fill="#FFC700"/>
<path d="M19.5 0L20.8471 4.1459H25.2063L21.6796 6.7082L23.0267 10.8541L19.5 8.2918L15.9733 10.8541L17.3204 6.7082L13.7937 4.1459H18.1529L19.5 0Z" fill="#FFC700"/>
<path d="M33 0L34.3471 4.1459H38.7063L35.1796 6.7082L36.5267 10.8541L33 8.2918L29.4733 10.8541L30.8204 6.7082L27.2937 4.1459H31.6529L33 0Z" fill="#FFC700"/>
<path d="M46.5 0L47.8471 4.1459H52.2063L48.6796 6.7082L50.0267 10.8541L46.5 8.2918L42.9733 10.8541L44.3204 6.7082L40.7937 4.1459H45.1529L46.5 0Z" fill="#FFC700"/>
<path d="M60 0L61.3471 4.1459H65.7063L62.1796 6.7082L63.5267 10.8541L60 8.2918L56.4733 10.8541L57.8204 6.7082L54.2937 4.1459H58.6529L60 0Z" fill="#FFC700"/>
</svg>
